<?xml version="1.0" standalone="no"?>
<!DOCTYPE svg PUBLIC "-//W3C//DTD SVG 20010904//EN"
 "http://www.w3.org/TR/2001/REC-SVG-20010904/DTD/svg10.dtd">
<svg version="1.0" xmlns="http://www.w3.org/2000/svg"
 width="200.000000pt" height="200.000000pt" viewBox="0 0 200.000000 200.000000"
 preserveAspectRatio="xMidYMid meet">
<metadata>
Created by potrace 1.11, written by Peter Selinger 2001-2013
</metadata>
<g transform="translate(0.000000,200.000000) scale(0.100000,-0.100000)"
fill="#000000" stroke="none">
<path d="M828 1935 c-289 -55 -540 -248 -667 -516 -244 -509 24 -1113 568
-1283 142 -45 352 -50 501 -11 100 25 256 105 342 173 175 139 296 343 339
570 17 92 6 308 -20 400 -45 155 -112 270 -226 391 -121 127 -274 219 -440
262 -106 27 -292 34 -397 14z m397 -209 c398 -136 607 -559 468 -950 -117
-330 -453 -536 -793 -487 -171 25 -302 91 -426 215 -88 88 -141 172 -181 289
-37 107 -44 291 -14 406 39 157 132 304 249 397 74 59 220 131 302 149 43 10
107 14 190 11 105 -2 138 -7 205 -30z"/>
<path d="M900 1607 c-61 -17 -110 -48 -155 -98 -52 -58 -77 -121 -83 -208 -6
-88 4 -101 79 -101 56 0 79 18 79 63 0 91 61 179 133 192 89 17 174 -21 203
-92 32 -76 9 -130 -115 -266 -102 -111 -124 -157 -135 -279 -9 -106 -2 -118
73 -118 35 0 63 5 69 13 5 6 12 45 14 84 6 88 23 117 140 241 101 107 128 161
128 259 0 135 -62 238 -176 290 -67 30 -185 40 -254 20z"/>
<path d="M907 624 c-12 -13 -8 -179 5 -192 17 -17 133 -16 147 2 8 9 11 46 9
103 l-3 88 -75 3 c-42 1 -79 0 -83 -4z"/>
</g>
</svg>
